#N canvas 217 23 812 643 12;
#N canvas 339 317 806 611 playback 1;
#X obj 290 303 phasor~;
#X obj 47 370 phasor~;
#X floatatom 44 345 5 0 0 0 - - -, f 5;
#X obj 46 512 *~ 256;
#X obj 290 507 samphold~;
#X obj 47 593 +~;
#X obj 49 763 dac~;
#X obj 48 695 *~;
#X obj 385 508 *~ 256;
#X obj 627 515 samphold~;
#X obj 386 589 +~;
#X obj 387 691 *~;
#X obj 385 457 wrap~;
#X obj 385 429 +~ 0.5;
#X obj 55 728 *~ 0.6;
#X floatatom 290 276 5 0 0 0 - - -, f 5;
#X obj 290 329 *~ 62080;
#X obj 42 297 r playback @hv_param 0 1000 0;
#X obj 294 208 r grainadjust @hv_param 0 1000 0;
#X obj 117 685 r volume @hv_param 0 1 0.5;
#X obj 177 591 tabread~ hanning_sample-0;
#X obj 47 628 tabread4~ mono_sample-0;
#X obj 321 621 tabread4~ mono_sample-0;
#X obj 543 625 tabread~ hanning_sample-0;
#X connect 0 0 16 0;
#X connect 1 0 3 0;
#X connect 1 0 4 1;
#X connect 1 0 13 0;
#X connect 2 0 1 0;
#X connect 3 0 5 0;
#X connect 3 0 20 0;
#X connect 4 0 5 1;
#X connect 5 0 21 0;
#X connect 7 0 14 0;
#X connect 8 0 10 0;
#X connect 8 0 23 0;
#X connect 9 0 10 1;
#X connect 10 0 22 0;
#X connect 11 0 14 0;
#X connect 12 0 8 0;
#X connect 12 0 9 1;
#X connect 13 0 12 0;
#X connect 14 0 6 0;
#X connect 14 0 6 1;
#X connect 15 0 0 0;
#X connect 16 0 4 0;
#X connect 16 0 9 0;
#X connect 17 0 2 0;
#X connect 18 0 15 0;
#X connect 19 0 14 1;
#X connect 20 0 7 1;
#X connect 21 0 7 0;
#X connect 22 0 11 0;
#X connect 23 0 11 1;
#X restore 388 100 pd playback;
#N canvas 488 108 450 300 tables 0;
#X obj 111 65 table-mono mono_sample;
#X obj 110 100 table-hanning hanning_sample;
#X restore 388 133 pd tables;
