#N canvas 327 111 762 372 10;
#X obj 99 69 r mainFreq @hv_param 0 1000 440;
#X floatatom 65 123 5 0 0 0 - - -, f 5;
#X msg 64 73 440;
#X obj 65 7 loadbang;
#X obj 318 173 osc~;
#X floatatom 319 139 5 0 0 0 - - -, f 5;
#X msg 321 81 220;
#X obj 318 20 loadbang;
#X obj 138 277 dac~;
#X obj 358 85 r modFreq @hv_param 0 1000 220;
#X obj 319 202 *~, f 5;
#X obj 115 203 +~;
#X obj 142 232 osc~;
#X obj 426 156 loadbang;
#X msg 426 192, f 2;
#X floatatom 395 212 5 0 0 0 - - -, f 5;
#X obj 414 124 r modAmount @hv_param 0 1000 50;
#X connect 0 0 1 0;
#X connect 1 0 11 0;
#X connect 2 0 1 0;
#X connect 3 0 2 0;
#X connect 4 0 10 0;
#X connect 5 0 4 0;
#X connect 6 0 5 0;
#X connect 7 0 6 0;
#X connect 9 0 5 0;
#X connect 10 0 11 1;
#X connect 11 0 12 0;
#X connect 12 0 8 0;
#X connect 12 0 8 1;
#X connect 13 0 14 0;
#X connect 14 0 15 0;
#X connect 15 0 10 1;
#X connect 16 0 15 0;
